<svg width="24" height="24" viewBox="0 0 24 24" fill="none" xmlns="http://www.w3.org/2000/svg">
<path d="M21.8018 9.70148C21.8465 9.56804 21.8911 9.4346 21.9411 9.30303C22.1626 11.5359 21.7554 13.8439 20.7837 15.8587C20.1907 17.1292 19.369 18.2644 18.4259 19.2718C17.097 20.6927 15.2965 21.5497 13.4388 21.873C11.3097 22.2339 9.07335 21.8204 7.20141 20.7002C5.53667 19.7003 4.122 18.2343 3.20747 16.4601C2.37153 14.8137 2.05001 12.8966 2.30008 11.0547C2.33489 10.8212 2.38561 10.5905 2.43608 10.3608C2.46848 10.2134 2.50078 10.0665 2.52871 9.9195C2.4394 9.98341 2.35188 10.0492 2.26435 10.115C2.17683 10.1808 2.08931 10.2465 2 10.3104C2.10717 9.26544 2.55729 8.28811 3.11459 7.43107C3.20139 7.31538 3.18977 7.17503 3.17842 7.03798C3.17575 7.00582 3.1731 6.97384 3.17175 6.9424C3.1003 6.19813 3.22176 5.44634 3.45039 4.73965C3.61472 4.23595 3.84336 3.72473 4.23632 3.37139C4.2649 4.07056 4.48639 4.74717 4.92222 5.28094C5.03612 5.16452 5.14557 5.04498 5.25463 4.92587C5.38501 4.78347 5.51482 4.64169 5.65099 4.5066C7.25857 2.94287 9.4163 2.0332 11.6098 2.00313C13.2959 1.95802 14.9964 2.40158 16.4539 3.29621C16.6249 3.40527 16.8185 3.46291 17.0128 3.52077C17.0864 3.54269 17.1601 3.56463 17.2327 3.58941C18.2473 3.93523 19.1975 4.58178 19.7834 5.53655C20.0549 5.94252 20.2049 6.42367 20.3335 6.8973C20.3429 6.48805 20.2816 6.08851 20.2201 5.68807C20.1879 5.47794 20.1556 5.26756 20.1335 5.0554C20.5908 5.55911 20.8551 6.20565 21.0837 6.85219C21.4196 7.89718 21.591 8.9948 21.6625 10.0999C21.7125 9.96837 21.7571 9.83493 21.8018 9.70148ZM17.2451 11.9256C17.2862 12.0309 17.3273 12.1361 17.3742 12.2366C17.7105 10.9361 17.5289 9.57193 17.2398 8.2926C17.5087 8.43397 17.7575 8.61067 17.9996 8.80151C18.013 8.08056 17.697 7.40909 17.2398 6.89312C16.4732 6.03082 15.4377 5.51485 14.4089 5.09783C14.745 4.97786 15.0989 4.96473 15.4483 4.95177C15.4694 4.95099 15.4906 4.95021 15.5117 4.9494C15.1229 4.24097 14.3281 3.99208 13.627 3.77251C13.6006 3.76425 13.5743 3.75603 13.5482 3.74782C13.8047 3.74221 14.0569 3.75444 14.3116 3.7668C14.3774 3.76999 14.4435 3.77319 14.5098 3.7761C13.3129 3.16117 11.9479 2.94206 10.6232 3.01274C8.62618 3.11876 6.66947 4.03055 5.27086 5.54312C5.20581 5.61149 5.14397 5.68409 5.08201 5.75682C4.96465 5.8946 4.84686 6.03288 4.70603 6.14391C4.64343 6.19508 4.58039 6.24484 4.51759 6.2944C4.33754 6.43651 4.15953 6.577 4 6.74469C4.14332 6.66635 4.28175 6.57774 4.41999 6.48925C4.60602 6.37016 4.7917 6.25131 4.98844 6.15804C5.68775 5.87532 6.47447 5.75516 7.2074 5.95307L7.21417 5.947C7.5751 5.62381 7.943 5.29437 8.37067 5.07662C8.78084 4.85751 9.23135 4.72322 9.68859 4.65254C9.04308 5.18265 8.42446 5.87532 8.2967 6.75883L8.27653 6.94967L8.41101 7.07689C8.53893 7.17639 8.66295 7.28306 8.78715 7.38987C8.9894 7.56381 9.19212 7.73815 9.4129 7.88265C9.45324 7.90386 9.49358 7.93213 9.53392 7.96039L10.0584 7.99574C10.2534 7.99574 10.4417 8.00988 10.63 8.03108C10.63 8.06762 10.6321 8.10526 10.6342 8.14314C10.6375 8.20053 10.6407 8.25845 10.6367 8.31381H10.6434L10.6165 8.55412C10.5022 8.68842 10.361 8.80151 10.2063 8.88632C9.9373 9.04013 9.70138 9.24967 9.46604 9.45871C9.36612 9.54745 9.26631 9.6361 9.16411 9.72036L9.05653 9.80517C9.36584 10.2434 9.39946 10.8442 9.40618 11.3743C8.87498 11.2329 8.33705 11.141 7.7924 11.0986L7.69826 11.2965C7.68268 11.3279 7.6666 11.359 7.65055 11.3901C7.58347 11.5199 7.51694 11.6487 7.48981 11.7913C7.48309 11.8549 7.48309 11.9256 7.48309 11.9892L7.63774 12.1235C7.98739 12.5547 8.35722 12.9929 8.84808 13.2544C9.19101 13.4382 9.58773 13.5654 9.97773 13.4947C10.2286 13.4329 10.4595 13.3155 10.6895 13.1986C10.9588 13.0618 11.2269 12.9255 11.5243 12.8798C12.0958 12.8091 12.6405 13.1554 13.017 13.5866C13.165 13.7209 13.1112 13.9683 12.9498 14.0602C12.8476 14.0913 12.7389 14.0997 12.6303 14.1082C12.4673 14.1209 12.3043 14.1337 12.1631 14.2227C11.997 14.3275 11.839 14.4467 11.6811 14.5659C11.3593 14.8088 11.038 15.0513 10.6501 15.1699C10.0719 15.3466 9.45997 15.4384 8.8548 15.396H8.63963C9.25825 15.9897 9.95756 16.5128 10.7645 16.7884C11.652 17.0782 12.6539 17.0994 13.5012 16.6683C14.5031 16.1665 15.2898 15.3112 15.942 14.3853C15.9689 14.8589 15.8949 15.3324 15.8143 15.7989C16.2648 15.3253 16.5405 14.6963 16.6682 14.046C16.8767 13.0848 16.8363 12.0952 16.7489 11.1198C17.0082 11.319 17.127 11.6231 17.2451 11.9256Z" fill="#242424"/>
</svg>
